<?xml version="1.0" encoding="utf-8"?>
<!-- Generator: Adobe Illustrator 16.0.4, SVG Export Plug-In . SVG Version: 6.00 Build 0)  -->
<!DOCTYPE svg PUBLIC "-//W3C//DTD SVG 1.1//EN" "http://www.w3.org/Graphics/SVG/1.1/DTD/svg11.dtd">
<svg version="1.1" id="Layer_1" xmlns="http://www.w3.org/2000/svg" xmlns:xlink="http://www.w3.org/1999/xlink" x="0px" y="0px"
	 width="914.5px" height="224px" viewBox="0 0 914.5 224" enable-background="new 0 0 914.5 224" xml:space="preserve">
<title>Group 2</title>
<desc>Created with Sketch.</desc>
<g id="logo-blue">
	<g id="Page-1">
		<g id="logo-blue-copy">
			<g id="Group" transform="translate(241.000000, 80.000000)">
				<path id="Shape" fill="#2683FF" d="M18.592,13.933c-1.262,1.038-1.892,2.411-1.892,4.12c0,1.71,0.771,3.068,2.312,4.078
					c1.541,1.008,5.1,2.2,10.676,3.572c5.577,1.373,9.906,3.432,12.989,6.178c3.081,2.746,4.624,6.753,4.624,12.021
					c0,5.27-1.976,9.541-5.927,12.818c-3.951,3.278-9.15,4.918-15.596,4.918c-9.303,0-17.682-3.447-25.135-10.341l7.818-9.582
					c6.332,5.55,12.188,8.322,17.568,8.322c2.407,0,4.301-0.521,5.675-1.558c1.372-1.037,2.06-2.438,2.06-4.203
					c0-1.764-0.729-3.166-2.186-4.201c-1.458-1.037-4.346-2.088-8.658-3.153c-6.839-1.625-11.84-3.739-15.005-6.347
					c-3.167-2.605-4.75-6.696-4.75-12.273c0-5.576,2.003-9.876,6.011-12.903c4.006-3.027,9.008-4.54,15.005-4.54
					c3.922,0,7.846,0.672,11.771,2.017c3.921,1.346,7.34,3.251,10.255,5.718l-6.643,9.582c-5.101-3.867-10.366-5.8-15.804-5.8
					C21.576,12.378,19.853,12.897,18.592,13.933L18.592,13.933L18.592,13.933z"/>
				<polygon id="Shape_1_" fill="#2683FF" points="79.83,13.556 79.83,60.967 66.717,60.967 66.717,13.556 50.073,13.556 
					50.073,2.207 96.475,2.207 96.475,13.556 				"/>
				<path id="Shape_2_" fill="#2683FF" d="M150.864,52.854c-5.939,5.801-13.255,8.703-21.94,8.703c-8.688,0-16-2.902-21.941-8.703
					c-5.938-5.799-8.91-13.015-8.91-21.646s2.972-15.847,8.91-21.646c5.941-5.8,13.253-8.701,21.941-8.701
					c8.687,0,16.001,2.901,21.94,8.701c5.939,5.801,8.91,13.016,8.91,21.646S156.803,47.055,150.864,52.854L150.864,52.854
					L150.864,52.854z M146.408,31.25c0-5.238-1.684-9.708-5.046-13.407c-3.36-3.699-7.494-5.548-12.396-5.548
					c-4.905,0-9.037,1.85-12.399,5.548c-3.36,3.698-5.043,8.168-5.043,13.407c0,5.242,1.683,9.697,5.043,13.365
					c3.363,3.673,7.494,5.508,12.399,5.508c4.903,0,9.036-1.835,12.396-5.508C144.727,40.947,146.408,36.491,146.408,31.25
					L146.408,31.25L146.408,31.25z"/>
				<path id="Shape_3_" fill="#2683FF" d="M215.507,21.71c0,9.415-3.729,15.496-11.182,18.242l14.878,21.015h-16.14l-13.029-18.746
					h-9.08v18.746h-13.111V2.208h22.275c9.135,0,15.648,1.542,19.543,4.623C213.559,9.913,215.507,14.872,215.507,21.71
					L215.507,21.71L215.507,21.71z M199.701,28.687c1.624-1.457,2.438-3.769,2.438-6.935s-0.84-5.339-2.521-6.515
					c-1.68-1.178-4.622-1.765-8.827-1.765h-9.835v17.4h9.585C195.022,30.872,198.074,30.145,199.701,28.687L199.701,28.687
					L199.701,28.687z"/>
				<path id="Shape_4_" fill="#2683FF" d="M227.444,13.471V2.206h30.598v38.333c0,7.006-1.808,12.246-5.422,15.721
					c-3.613,3.475-8.252,5.211-13.912,5.211c-7.062,0-13.228-2.718-18.493-8.154l6.809-9.414c3.532,3.812,7.23,5.718,11.097,5.718
					c1.852,0,3.435-0.716,4.75-2.146c1.315-1.429,1.978-3.572,1.978-6.431V13.472L227.444,13.471L227.444,13.471L227.444,13.471
					L227.444,13.471z"/>
			</g>
			<g id="Group_1_">
				<path id="Shape_5_" fill="#2683FF" d="M198.309,64.922c-0.179,6.992-3.214,12.203-9.071,15.715
					c-1.079,0.646-1.454,1.304-1.451,2.536c0.035,19.074,0.032,38.149,0.005,57.22c-0.002,1.146,0.29,1.836,1.341,2.441
					c6.776,3.916,10.205,11.139,8.988,18.732c-1.167,7.274-6.983,13.252-14.519,14.684c-4.368,0.833-8.599,0.17-12.427-2.18
					c-1.167-0.713-1.989-0.588-3.083,0.043c-16.397,9.498-32.812,18.971-49.246,28.408c-1.124,0.646-1.545,1.355-1.542,2.668
					c0.017,9.178-7.066,17.164-15.914,18.054c-9.424,0.95-17.756-4.972-19.792-14.116c-0.312-1.406-0.417-2.876-0.449-4.314
					c-0.022-0.976-0.294-1.571-1.161-2.074c-16.659-9.584-33.308-19.19-49.946-28.811c-0.901-0.525-1.609-0.529-2.52,0.02
					c-10.873,6.546-24.729,0.271-27.037-11.955c-1.455-7.725,1.689-14.946,8.604-19.016c1.092-0.645,1.586-1.293,1.584-2.629
					c-0.05-19.076-0.042-38.146-0.012-57.221c0.001-1.146-0.299-1.824-1.348-2.433C2.373,76.663-0.892,69.659,0.441,61.795
					c1.324-7.812,7.365-13.543,15.229-14.663c4.214-0.599,8.276,0.169,11.924,2.497c0.847,0.542,1.476,0.525,2.338,0.028
					c16.591-9.601,33.195-19.175,49.812-28.727c1.005-0.578,1.396-1.241,1.398-2.425C81.169,8,89.47-0.042,99.988,0.171
					c8.198,0.164,15.869,6.931,17.032,15.021c0.106,0.744,0.273,1.202,0.273,2.226c0,2.243,0.826,3.194,2.57,4.192
					c16.124,9.226,32.203,18.524,48.271,27.838c1.104,0.642,1.906,0.668,3.056,0.016c10.914-6.225,24.147-0.259,26.806,12.059
					C198.246,62.669,198.222,63.875,198.309,64.922L198.309,64.922L198.309,64.922z M56.021,130.355
					c-0.165,0.143-0.274,0.263-0.414,0.34c-9.045,5.227-18.083,10.463-27.161,15.627c-0.502,0.285-1.477,0.227-1.985-0.081
					c-2.399-1.448-4.954-2.41-7.75-2.485c-9.302-0.238-14.959,7.36-15.277,13.961c-0.368,7.732,5.482,15.652,14.943,15.581
					c8.297-0.062,14.609-6.715,14.527-15.017c-0.013-1.482,0.425-2.321,1.726-3.061c9.64-5.488,19.241-11.043,28.833-16.613
					c0.927-0.541,1.673-0.629,2.682-0.153c5.982,2.812,12.168,3.288,18.545,1.485c0.634-0.178,1.478,0.002,2.11,0.271
					c1.875,0.798,3.666,1.812,5.553,2.568c1.076,0.438,1.439,1.023,1.438,2.166c-0.033,15.035-0.03,30.066-0.003,45.102
					c0.001,1.062-0.333,1.665-1.302,2.128c-5.064,2.442-8.889,8.743-7.846,15.481c1.21,7.828,9.253,13.74,17.015,12.224
					c6.84-1.335,11.33-6.004,12.292-13.187c0.651-4.871-1.69-11.301-7.955-14.521c-0.851-0.435-1.318-0.907-1.315-1.952
					c0.031-14.604,0.034-29.205,0-43.807c0-1.299,0.596-1.562,1.733-1.766c3-0.525,6.007-1.106,8.938-1.93
					c1.327-0.373,2.375-0.426,3.661,0.129c6.429,2.764,12.688,2.291,18.676-1.322c0.855-0.512,1.468-0.535,2.326-0.033
					c7.91,4.605,15.833,9.191,23.792,13.711c1.288,0.729,1.785,1.533,1.747,3.043c-0.23,8.736,7.389,15.876,16.271,14.929
					c8.723-0.927,14.9-9.319,12.877-17.81c-2.425-10.172-13.441-14.762-22.343-9.264c-0.938,0.578-1.616,0.735-2.617,0.149
					c-7.529-4.399-15.078-8.771-22.658-13.085c-1.121-0.637-1.271-1.229-0.913-2.43c2.286-7.702,0.73-14.555-4.783-20.456
					c-1.078-1.154-6.136-9.231-6.841-10.72c-0.56-1.178-0.321-1.807,0.801-2.451c11.493-6.582,22.969-13.197,34.425-19.843
					c0.923-0.533,1.549-0.542,2.455,0.066c3.229,2.167,6.849,2.853,10.647,2.188c7.393-1.296,12.751-7.986,12.092-15.883
					c-0.717-8.567-9.12-14.971-17.515-13.113c-7.363,1.631-11.99,7.387-11.905,14.954c0.012,1.289-0.348,2.024-1.496,2.682
					c-11.64,6.659-23.247,13.363-34.835,20.107c-1.045,0.607-1.616,0.481-2.457-0.329c-5.46-5.26-12.03-8.214-19.525-9.151
					c-2.53-0.318-2.531-0.305-2.531-2.916c-0.001-13.686,0.033-27.372-0.041-41.057c-0.01-1.91,0.438-3.017,2.228-4.045
					c6.417-3.687,8.854-11.624,5.92-18.392c-2.961-6.827-10.525-10.474-17.619-8.313c-6.457,1.967-10.056,6.528-10.688,13.166
					c-0.487,5.122,1.936,10.812,7.78,14.007c0.898,0.49,1.524,0.921,1.521,2.153c-0.048,15.089-0.045,30.175-0.007,45.264
					c0.002,1.196-0.543,1.601-1.52,2.095c-2.919,1.471-6.051,2.758-8.527,4.808c-2.859,2.359-5.531,3.723-9.513,3.723
					c-0.388-0.012-0.638,0.025-1.042,0.017c-0.984-0.021-2.094-0.062-2.899-0.523c-11.739-6.695-23.417-13.5-35.171-20.173
					c-1.681-0.952-2.489-1.973-2.209-3.907c0.11-0.771-0.127-1.597-0.253-2.391c-1.146-7.229-8.218-13.276-16.752-11.874
					C7.532,51.81,2.216,59.386,3.598,67.495c1.762,10.356,13.58,15.598,22.496,9.933c1.006-0.639,1.702-0.689,2.733-0.088
					c8.836,5.154,17.709,10.247,26.568,15.36c1.521,0.877,3.032,1.76,4.541,2.636C49.759,106.122,48.616,117.707,56.021,130.355
					L56.021,130.355L56.021,130.355z"/>
				<path id="Shape_6_" fill="#2683FF" d="M80.502,95.502c2.33,0.206,3.489-0.577,5.189-2.159c7.35-6.829,16.019-8.943,25.535-5.782
					c9.358,3.108,15.161,9.758,17.083,19.514c0.376,1.91,1.128,3.059,2.834,4.032c4.88,2.78,7.689,8.792,6.727,13.799
					c-1.251,6.484-5.503,10.98-11.517,11.934c-3.204,0.512-6.382,0.145-9.2-1.59c-1.263-0.779-2.262-0.693-3.565-0.148
					c-8.37,3.521-16.478,2.922-24.181-1.922c-1.185-0.748-2.175-0.806-3.454-0.386c-10.857,3.547-22.149-2.614-24.906-13.44
					C57.888,106.938,67.791,94.935,80.502,95.502L80.502,95.502L80.502,95.502z"/>
				<path id="Shape_7_" fill="#2683FF" d="M176.143,158.559c0-2.429,1.745-4.191,4.135-4.188c2.303,0.012,4.264,1.91,4.285,4.158
					c0.025,2.164-2.068,4.258-4.251,4.262C177.977,162.791,176.144,160.932,176.143,158.559L176.143,158.559L176.143,158.559z"/>
				<path id="Shape_8_" fill="#2683FF" d="M95.02,18.24c0.009-2.352,1.843-4.167,4.213-4.169c2.374-0.002,4.194,1.809,4.203,4.17
					c0.006,2.264-1.971,4.266-4.193,4.238C96.98,22.457,95.013,20.479,95.02,18.24L95.02,18.24L95.02,18.24z"/>
				<path id="Shape_9_" fill="#2683FF" d="M22.31,158.576c-0.009,2.371-1.856,4.234-4.181,4.215
					c-2.195-0.021-4.226-2.068-4.234-4.277c-0.011-2.209,1.997-4.143,4.301-4.143C20.583,154.373,22.319,156.146,22.31,158.576
					L22.31,158.576L22.31,158.576z"/>
				<path id="Shape_10_" fill="#2683FF" d="M99.279,201.173c2.368,0.017,4.167,1.817,4.156,4.161
					c-0.015,2.335-1.841,4.094-4.241,4.079c-2.38-0.013-4.198-1.826-4.174-4.163C95.047,202.926,96.902,201.154,99.279,201.173
					L99.279,201.173L99.279,201.173z"/>
				<path id="Shape_11_" fill="#2683FF" d="M18.243,69.122c-2.4,0.021-4.276-1.728-4.349-4.047c-0.069-2.26,1.827-4.157,4.193-4.191
					c2.47-0.037,4.186,1.609,4.221,4.044C22.347,67.375,20.672,69.1,18.243,69.122L18.243,69.122L18.243,69.122z"/>
				<path id="Shape_12_" fill="#2683FF" d="M180.226,69.128c-2.426-0.017-4.105-1.745-4.083-4.192
					c0.024-2.429,1.745-4.081,4.215-4.049c2.368,0.033,4.253,1.913,4.197,4.185C184.499,67.374,182.61,69.145,180.226,69.128
					L180.226,69.128L180.226,69.128z"/>
			</g>
		</g>
	</g>
</g>
<g>
	<path fill="#2683FF" d="M578.305,130.402c-0.948,1.423-2.095,2.768-3.438,4.034c-1.344,1.267-2.898,2.383-4.663,3.346
		c-1.766,0.964-3.714,1.726-5.847,2.288c-2.134,0.561-4.465,0.843-6.994,0.843c-4.215,0-8.113-0.739-11.695-2.213
		c-3.583-1.475-6.665-3.517-9.245-6.124c-2.582-2.608-4.597-5.702-6.045-9.285c-1.45-3.582-2.174-7.507-2.174-11.774
		c0-4.267,0.737-8.191,2.213-11.774c1.475-3.582,3.517-6.677,6.124-9.285c2.608-2.607,5.689-4.648,9.246-6.124
		c3.556-1.474,7.414-2.212,11.576-2.212c2.055,0,4.07,0.215,6.046,0.642c1.975,0.428,3.832,1.031,5.57,1.806
		c1.738,0.777,3.319,1.709,4.741,2.795c1.423,1.088,2.608,2.316,3.557,3.686l-4.741,3.477c-0.581-0.895-1.357-1.791-2.332-2.687
		c-0.975-0.896-2.121-1.686-3.437-2.371c-1.318-0.684-2.754-1.237-4.308-1.659c-1.554-0.421-3.228-0.632-5.018-0.632
		c-3.635,0-6.889,0.657-9.759,1.969c-2.872,1.314-5.309,3.086-7.31,5.317c-2.003,2.232-3.53,4.818-4.583,7.759
		c-1.055,2.941-1.581,6.039-1.581,9.294c0,3.256,0.54,6.354,1.62,9.295c1.079,2.941,2.62,5.526,4.623,7.758
		c2.001,2.232,4.438,4.004,7.31,5.316c2.87,1.313,6.097,1.97,9.68,1.97c3.213,0,6.269-0.658,9.167-1.976
		c2.896-1.316,5.32-3.424,7.27-6.322L578.305,130.402z"/>
	<path fill="#2683FF" d="M639.151,111.517c0,4.268-0.738,8.192-2.213,11.774c-1.476,3.583-3.516,6.677-6.124,9.285
		c-2.607,2.607-5.689,4.649-9.245,6.124c-3.557,1.474-7.416,2.213-11.577,2.213c-4.162,0-8.021-0.739-11.576-2.213
		c-3.557-1.475-6.638-3.517-9.246-6.124c-2.607-2.608-4.649-5.702-6.124-9.285c-1.476-3.582-2.213-7.507-2.213-11.774
		c0-4.267,0.737-8.191,2.213-11.774c1.475-3.582,3.517-6.677,6.124-9.285c2.608-2.607,5.689-4.648,9.246-6.124
		c3.556-1.474,7.414-2.212,11.576-2.212c4.161,0,8.021,0.738,11.577,2.212c3.556,1.476,6.638,3.517,9.245,6.124
		c2.608,2.608,4.648,5.703,6.124,9.285C638.412,103.326,639.151,107.25,639.151,111.517z M633.145,111.556
		c0-3.261-0.527-6.364-1.58-9.31c-1.055-2.945-2.582-5.535-4.583-7.77c-2.003-2.235-4.439-4.01-7.31-5.325
		c-2.872-1.315-6.099-1.973-9.681-1.973c-3.583,0-6.81,0.658-9.68,1.973c-2.872,1.315-5.309,3.09-7.31,5.325
		c-2.003,2.235-3.53,4.825-4.583,7.77c-1.055,2.946-1.581,6.049-1.581,9.31c0,3.262,0.526,6.365,1.581,9.31
		c1.053,2.945,2.58,5.522,4.583,7.731c2.001,2.209,4.438,3.971,7.31,5.286c2.87,1.314,6.097,1.972,9.68,1.972
		c3.582,0,6.809-0.657,9.681-1.972c2.87-1.315,5.307-3.077,7.31-5.286c2.001-2.209,3.528-4.786,4.583-7.731
		C632.617,117.921,633.145,114.818,633.145,111.556z"/>
	<path fill="#2683FF" d="M675.342,129.85h0.079l18.728-46.307h8.692v55.947h-5.689V90.892h-0.158l-20.229,48.598h-3.003
		l-20.229-48.598h-0.158v48.598h-5.689V83.543h8.692L675.342,129.85z"/>
	<path fill="#2683FF" d="M714.377,83.543h15.805c2.845,0,5.426,0.304,7.744,0.909c2.317,0.606,4.307,1.528,5.966,2.766
		c1.66,1.238,2.937,2.793,3.833,4.663c0.895,1.87,1.343,4.069,1.343,6.598s-0.461,4.729-1.383,6.598
		c-0.922,1.871-2.212,3.425-3.872,4.663c-1.659,1.238-3.662,2.173-6.005,2.805c-2.345,0.632-4.939,0.948-7.784,0.948h-9.957v25.998
		h-5.689V83.543z M720.067,108.672h9.641c4.478,0,7.875-0.869,10.194-2.608c2.317-1.738,3.477-4.267,3.477-7.586
		c0-3.477-1.198-6.018-3.595-7.625c-2.398-1.606-5.757-2.41-10.076-2.41h-9.641V108.672z"/>
	<path fill="#2683FF" d="M762.579,134.433h26.077v5.058H756.89V83.543h5.689V134.433z"/>
	<path fill="#2683FF" d="M799.561,134.433h29.949v5.058h-35.639V83.543h34.69V88.6h-29.001v19.203h27.104v5.057h-27.104V134.433z"/>
	<path fill="#2683FF" d="M855.666,106.143l15.252-22.6h6.796l-18.57,26.63l20.546,29.317h-7.112l-17.068-25.208l-16.99,25.208
		h-7.112l20.546-29.396l-18.728-26.551h7.111L855.666,106.143z"/>
</g>
</svg>
